<svg xmlns="http://www.w3.org/2000/svg" viewBox="0 0 128 128" width="32px" height="32px">
    <path fill="#71c2ff"
        d="M121.8,52.9l-9.9,9.9L112,38c0-1.1-0.6-2.1-1.5-2.6l-45-26c-0.9-0.5-2.1-0.5-3,0l-45,26	c-1.4,0.8-1.9,2.7-1.1,4.1
        c0.8,1.4,2.7,1.9,4.1,1.1L64,15.5l42,24.3l0,23l-9.9-9.9c-1.2-1.2-3.1-1.2-4.2,0c-1.2,1.2-1.2,3.1,0,4.2
        l15,15c0.6,0.6,1.4,0.9,2.1,0.9c0.2,0,0.4,0,0.6-0.1c0.1,0,0.2-0.1,0.3-0.1c0.1,0,0.2-0.1,0.3-0.1c0.1,0,0.2-0.1,0.3-0.2
        c0.1,0,0.1-0.1,0.2-0.1c0.2-0.1,0.3-0.2,0.5-0.4c0,0,0,0,0,0l15-15c1.2-1.2,1.2-3.1,0-4.2C124.9,51.7,123,51.7,121.8,52.9z" />
    <path fill="#444b54" d="M107.5,87.4L64,112.5L22,88.3v-23l9.9,9.9c0.6,0.6,1.4,0.9,2.1,0.9s1.5-0.3,2.1-0.9c1.2-1.2,1.2-3.1,0-4.2
        l-15-15c-1.2-1.2-3.1-1.2-4.2,0l-15,15c-1.2,1.2-1.2,3.1,0,4.2c1.2,1.2,3.1,1.2,4.2,0l9.9-9.9V90c0,1.1,0.6,2.1,1.5,2.6l45,26
        c0.5,0.3,1,0.4,1.5,0.4s1-0.1,1.5-0.4l45-26c1.4-0.8,1.9-2.7,1.1-4.1C110.8,87.1,109,86.6,107.5,87.4z" />
</svg>
